<?xml version="1.0" encoding="UTF-8"?><svg id="Layer_1" xmlns="http://www.w3.org/2000/svg" viewBox="300 500 900 500"><defs><style>.cls-1{fill:#836fff;}</style></defs><path class="cls-1" d="M484.64,885.82l-81.97-117.57-21.08,26.23v91.34h-80.57v-312.44h80.57v128.35l96.03-128.35h99.31l-121.32,146.15,127.88,166.29h-98.84Z"/><path class="cls-1" d="M727.24,885.82v-22.48c-14.05,16.86-41.22,28.11-70.26,28.11-34.66,0-77.76-23.42-77.76-74.48,0-54.81,43.09-71.2,77.76-71.2,29.98,0,56.68,9.37,70.26,26.23v-28.57c0-19.67-16.86-32.79-45.91-32.79-22.48,0-45.91,8.43-64.17,23.89l-25.76-45.44c29.04-24.83,67.92-35.13,102.58-35.13,54.34,0,105.39,20.14,105.39,90.4v141.46h-72.14Zm0-78.23c-7.5-10.31-24.36-15.93-40.28-15.93-19.21,0-36.07,8.43-36.07,26.23s16.86,26.23,36.07,26.23c15.92,0,32.79-5.62,40.28-16.39v-20.14Z"/><path class="cls-1" d="M834.98,885.82v-52.93l90.87-110.55h-90.87v-62.77h188.77v51.06l-92.75,112.89h94.62v62.3h-190.65Z"/><path class="cls-1" d="M1056.53,589.78c0-22.95,18.27-41.22,41.22-41.22s41.22,18.27,41.22,41.22-18.27,41.22-41.22,41.22-41.22-18.27-41.22-41.22Zm5.15,296.04v-226.25h72.14v226.25h-72.14Z"/></svg>